<svg width="295" height="275" viewBox="0 0 295 275" fill="none" xmlns="http://www.w3.org/2000/svg">
<path d="M257.547 37.875V28.4062H267.266V18.9375H199.234V28.4062H208.953V37.875C208.968 41.5624 209.867 45.1953 211.58 48.4835C213.293 51.7717 215.772 54.624 218.818 56.8125C215.772 59.001 213.293 61.8533 211.58 65.1415C209.867 68.4297 208.968 72.0626 208.953 75.75V85.2188H199.234V94.6875H267.266V85.2188H257.547V75.75C257.532 72.0626 256.633 68.4297 254.92 65.1415C253.207 61.8533 250.728 59.001 247.682 56.8125C250.728 54.624 253.207 51.7717 254.92 48.4835C256.633 45.1953 257.532 41.5624 257.547 37.875V37.875ZM247.828 75.75V85.2188H218.672V75.75C218.672 71.9831 220.208 68.3705 222.942 65.7069C225.676 63.0433 229.384 61.5469 233.25 61.5469C237.116 61.5469 240.824 63.0433 243.558 65.7069C246.292 68.3705 247.828 71.9831 247.828 75.75V75.75ZM247.828 37.875C247.828 41.6419 246.292 45.2545 243.558 47.9181C240.824 50.5817 237.116 52.0781 233.25 52.0781C229.384 52.0781 225.676 50.5817 222.942 47.9181C220.208 45.2545 218.672 41.6419 218.672 37.875V28.4062H247.828V37.875Z" fill="#5BD98A" fill-opacity="0.7"/>
<path d="M160.359 208.313H154.625C155.425 206.174 155.682 203.878 155.373 201.621C155.065 199.365 154.201 197.214 152.855 195.354C151.508 193.493 149.72 191.978 147.642 190.937C145.564 189.895 143.258 189.36 140.922 189.375H83.7756L98.9855 174.604C101.724 171.936 103.263 168.317 103.263 164.543C103.263 160.77 101.724 157.151 98.9855 154.483C96.2468 151.814 92.5324 150.315 88.6593 150.315C84.7862 150.315 81.0718 151.814 78.3331 154.483L48.5938 183.504V75.75H165.219V66.2813H55.4455L84.6017 37.875H165.219V28.4062H82.6094C81.3211 28.4156 80.0858 28.9072 79.1592 29.7792L40.2842 67.6542C39.3891 68.557 38.8846 69.7605 38.875 71.0156V170.438H9.71875C7.14354 170.445 4.67601 171.445 2.85505 173.219C1.0341 174.993 0.00769106 177.397 0 179.906V255.656C0.00769106 258.165 1.0341 260.569 2.85505 262.343C4.67601 264.118 7.14354 265.118 9.71875 265.125H32.0233L38.875 271.8C39.7706 272.685 40.8374 273.387 42.0135 273.866C43.1897 274.346 44.4518 274.593 45.7267 274.594H121.484C123.388 274.604 125.276 274.245 127.036 273.538C128.796 272.831 130.394 271.79 131.738 270.475C133.256 269.008 134.426 267.235 135.165 265.28C135.903 263.325 136.193 261.236 136.014 259.16C135.896 257.957 135.601 256.777 135.139 255.656H140.922C143.258 255.672 145.564 255.136 147.642 254.095C149.72 253.054 151.508 251.538 152.855 249.677C154.201 247.817 155.065 245.667 155.373 243.41C155.682 241.153 155.425 238.858 154.625 236.719H160.359C164.226 236.719 167.934 235.222 170.668 232.559C173.402 229.895 174.938 226.283 174.938 222.516C174.938 218.749 173.402 215.136 170.668 212.473C167.934 209.809 164.226 208.313 160.359 208.313ZM9.71875 179.906H38.875V189.375H9.71875V179.906ZM160.359 227.25H82.6094V236.719H140.922C142.211 236.719 143.447 237.218 144.358 238.105C145.269 238.993 145.781 240.198 145.781 241.453C145.781 242.709 145.269 243.913 144.358 244.801C143.447 245.689 142.211 246.188 140.922 246.188H82.6094V255.656H120.95C122.231 255.618 123.484 256.034 124.475 256.826C125.467 257.618 126.131 258.733 126.344 259.965C126.402 260.666 126.297 261.371 126.036 262.026C125.775 262.682 125.365 263.272 124.837 263.752C124.407 264.195 123.887 264.546 123.309 264.782C122.732 265.019 122.11 265.136 121.484 265.125H45.7267L38.875 258.45C37.9794 257.565 36.9126 256.863 35.7365 256.384C34.5603 255.904 33.2982 255.657 32.0233 255.656H9.71875V198.844H42.5681C43.8431 198.843 45.1052 198.596 46.2813 198.116C47.4574 197.637 48.5242 196.935 49.4198 196.05L85.2334 161.205C86.163 160.43 87.3588 160.025 88.5818 160.071C89.8048 160.117 90.9649 160.611 91.8303 161.454C92.6958 162.297 93.2028 163.427 93.25 164.619C93.2972 165.81 92.8813 166.975 92.0852 167.881L76.9239 182.7C75.5672 184.026 74.6446 185.714 74.2726 187.551C73.9007 189.388 74.0962 191.292 74.8344 193.02C75.5602 194.748 76.7989 196.225 78.3919 197.263C79.9849 198.3 81.8595 198.851 83.7756 198.844H140.922C142.211 198.844 143.447 199.343 144.358 200.23C145.269 201.118 145.781 202.323 145.781 203.578C145.781 204.834 145.269 206.038 144.358 206.926C143.447 207.814 142.211 208.313 140.922 208.313H82.6094V217.781H160.359C161.648 217.781 162.884 218.28 163.795 219.168C164.707 220.056 165.219 221.26 165.219 222.516C165.219 223.771 164.707 224.975 163.795 225.863C162.884 226.751 161.648 227.25 160.359 227.25V227.25Z" fill="#5BD98A" fill-opacity="0.7"/>
<path d="M242.969 236.719H165.219V246.188H247.828C249.117 246.188 250.353 245.689 251.264 244.801C252.176 243.913 252.688 242.709 252.688 241.453V222.516H242.969V236.719Z" fill="#5BD98A" fill-opacity="0.7"/>
<path d="M242.969 123.094H252.688V137.297H242.969V123.094Z" fill="#5BD98A" fill-opacity="0.7"/>
<path d="M291.563 173.212C291.47 173.117 291.368 173.032 291.271 172.947L259.559 146.766C258.199 145.442 256.468 144.54 254.583 144.175C252.698 143.81 250.744 143.997 248.969 144.714C247.193 145.43 245.675 146.644 244.607 148.201C243.539 149.757 242.969 151.588 242.969 153.46V160.969H208.953C206.376 160.969 203.904 161.966 202.081 163.742C200.258 165.518 199.234 167.926 199.234 170.437V189.375C199.234 191.886 200.258 194.295 202.081 196.07C203.904 197.846 206.376 198.844 208.953 198.844H242.969V206.352C242.969 208.226 243.539 210.057 244.607 211.614C245.675 213.171 247.194 214.385 248.97 215.102C250.174 215.586 251.463 215.836 252.765 215.835C255.19 215.864 257.527 214.957 259.267 213.312L291.563 186.601C293.384 184.825 294.408 182.417 294.408 179.906C294.408 177.395 293.384 174.987 291.563 173.212V173.212ZM252.688 206.352V194.109C252.688 192.854 252.176 191.65 251.264 190.762C250.353 189.874 249.117 189.375 247.828 189.375H208.953V170.437H247.828C249.117 170.437 250.353 169.939 251.264 169.051C252.176 168.163 252.688 166.959 252.688 165.703L252.979 153.725L284.667 179.906L252.688 206.352Z" fill="#5BD98A" fill-opacity="0.7"/>
<path d="M136.062 123.094H204.094V132.562H136.062V123.094Z" fill="#5BD98A" fill-opacity="0.7"/>
<path d="M136.062 142.031H223.531V151.5H136.062V142.031Z" fill="#5BD98A" fill-opacity="0.7"/>
<path d="M68.0312 94.6875H82.6094V85.2188H68.0312C65.4537 85.2188 62.9817 86.2163 61.1591 87.9921C59.3364 89.7678 58.3125 92.1762 58.3125 94.6875V108.891H68.0312V94.6875Z" fill="#5BD98A" fill-opacity="0.7"/>
<path d="M58.3125 132.562C58.3125 135.074 59.3364 137.482 61.1591 139.258C62.9817 141.034 65.4537 142.031 68.0312 142.031H82.7017V132.562H68.0312V118.359H58.3125V132.562Z" fill="#5BD98A" fill-opacity="0.7"/>
<path d="M116.625 94.6875C116.625 92.1762 115.601 89.7678 113.778 87.9921C111.956 86.2163 109.484 85.2188 106.906 85.2188H92.3281V94.6875H106.906V108.891H116.625V94.6875Z" fill="#5BD98A" fill-opacity="0.7"/>
<path d="M106.906 132.562H92.2358V142.031H106.906C109.484 142.031 111.956 141.034 113.778 139.258C115.601 137.482 116.625 135.074 116.625 132.562V118.359H106.906V132.562Z" fill="#5BD98A" fill-opacity="0.7"/>
<path d="M145.781 47.3438H165.219V56.8125H145.781V47.3438Z" fill="#5BD98A" fill-opacity="0.7"/>
<path d="M116.625 47.3438H136.062V56.8125H116.625V47.3438Z" fill="#5BD98A" fill-opacity="0.7"/>
<path d="M87.4688 47.3438H106.906V56.8125H87.4688V47.3438Z" fill="#5BD98A" fill-opacity="0.7"/>
<path d="M281.844 37.875H291.562V9.46875C291.562 6.95748 290.539 4.54907 288.716 2.77333C286.893 0.997597 284.421 0 281.844 0H252.688V9.46875H281.844V37.875Z" fill="#5BD98A" fill-opacity="0.7"/>
<path d="M184.656 37.875H174.938V9.46875C174.938 6.95748 175.961 4.54907 177.784 2.77333C179.607 0.997597 182.079 0 184.656 0H213.812V9.46875H184.656V37.875Z" fill="#5BD98A" fill-opacity="0.7"/>
<path d="M291.562 104.156V75.75H281.844V104.156H252.688V113.625H281.844C284.421 113.625 286.893 112.627 288.716 110.852C290.539 109.076 291.562 106.668 291.562 104.156Z" fill="#5BD98A" fill-opacity="0.7"/>
<path d="M184.656 113.625H213.812V104.156H184.656V75.75H174.938V104.156C174.938 106.668 175.961 109.076 177.784 110.852C179.607 112.627 182.079 113.625 184.656 113.625Z" fill="#5BD98A" fill-opacity="0.7"/>
</svg>
